<?xml version="1.0" encoding="utf-8"?>
<!-- Generator: Adobe Illustrator 24.0.0, SVG Export Plug-In . SVG Version: 6.00 Build 0)  -->
<svg version="1.1" id="图层_1" xmlns="http://www.w3.org/2000/svg" xmlns:xlink="http://www.w3.org/1999/xlink" x="0px" y="0px"
	 viewBox="0 0 40 40" style="enable-background:new 0 0 40 40;" xml:space="preserve">
<style type="text/css">
	.st0{fill:#FFFFFC;}
	.st1{fill:#826AEE;}
	.st2{fill:#FFFFFF;}
</style>
<title>扩展插件配图设计</title>
<g id="_2._EIM">
	<path class="st0" d="M33.95,10.16v14.52c0,0.49-0.16,0.9-0.49,1.23c-0.33,0.33-0.74,0.49-1.23,0.49H21.97
		c-0.41,0-0.74,0.08-1.07,0.33h-0.08l0,0l-5.17,3.61v-1.72c0-1.15-0.98-2.13-2.13-2.13H7.69c-0.49,0-0.9-0.16-1.23-0.49
		c-0.33-0.33-0.49-0.74-0.49-1.23V10.16c0-0.49,0.16-0.9,0.49-1.23C6.79,8.6,7.2,8.43,7.69,8.43h24.53c0.49,0,0.9,0.16,1.23,0.49
		C33.78,9.25,33.95,9.74,33.95,10.16z"/>
	<path class="st1" d="M32.23,6.46H7.77C5.72,6.46,4,8.1,4,10.24v14.52c0,2.05,1.72,3.77,3.77,3.77h5.83c0.08,0,0.16,0.08,0.16,0.16
		l0,0v3.94c0,0.49,0.41,0.9,0.9,0.9c0.16,0,0.33,0,0.41-0.08l6.89-4.84h10.26c2.05,0,3.77-1.64,3.77-3.77V10.16
		C36,8.1,34.28,6.38,32.23,6.46L32.23,6.46z"/>
	<path class="st2" d="M18.03,17.95c0,1.07,0.82,2.05,1.97,2.05c1.07,0,2.05-0.82,2.05-1.97c0-1.07-0.82-2.05-1.97-2.05
		c0,0,0,0-0.08,0C18.93,15.98,18.03,16.8,18.03,17.95z M10.65,17.95c0,1.07,0.82,2.05,1.97,2.05c1.07,0,2.05-0.82,2.05-1.97
		c0-1.07-0.82-2.05-1.97-2.05c0,0,0,0-0.08,0C11.63,15.98,10.73,16.8,10.65,17.95L10.65,17.95z M25.33,17.95
		c0,1.07,0.82,2.05,1.97,2.05c1.07,0,2.05-0.82,2.05-1.97c0-1.07-0.82-2.05-1.97-2.05c0,0,0,0-0.08,0
		C26.24,15.98,25.33,16.8,25.33,17.95L25.33,17.95z"/>
</g>
</svg>
